<?xml version="1.0" encoding="UTF-8" standalone="no"?>
<svg
   xmlns:dc="http://purl.org/dc/elements/1.1/"
   xmlns:cc="http://creativecommons.org/ns#"
   xmlns:rdf="http://www.w3.org/1999/02/22-rdf-syntax-ns#"
   xmlns:svg="http://www.w3.org/2000/svg"
   xmlns="http://www.w3.org/2000/svg"
   xmlns:sodipodi="http://sodipodi.sourceforge.net/DTD/sodipodi-0.dtd"
   xmlns:inkscape="http://www.inkscape.org/namespaces/inkscape"
   width="6623.6548mm"
   height="1695.7496mm"
   viewBox="0 0 6623.6548 1695.7496"
   version="1.1"
   id="svg76"
   inkscape:version="1.0 (4035a4fb49, 2020-05-01)"
   sodipodi:docname="logofirmowemixbocian.svg">
  <defs
     id="defs70">
    <rect
       id="rect316"
       height="51.315749"
       width="2125.3273"
       y="1134.3466"
       x="-4124.3374" />
    <rect
       id="rect310"
       height="2180.9193"
       width="4588.4832"
       y="441.58396"
       x="-6266.77" />
    <rect
       id="rect268"
       height="36.285714"
       width="1052.2857"
       y="786.36827"
       x="-7841.6038" />
    <rect
       id="rect260"
       height="7789.3333"
       width="13861.143"
       y="109.03494"
       x="-11845.128" />
    <rect
       id="rect254"
       height="2317.7613"
       width="5738.8113"
       y="480.07077"
       x="-3140.7856" />
    <rect
       id="rect246"
       height="946.45238"
       width="3906.7619"
       y="257.20161"
       x="-3293.7943" />
    <rect
       id="rect240"
       height="1130.9048"
       width="4254.5"
       y="163.46351"
       x="-3030.7228" />
    <rect
       id="rect234"
       height="24.190476"
       width="211.66667"
       y="725.89208"
       x="-892.8895" />
    <rect
       id="rect228"
       height="42.333333"
       width="54.428571"
       y="-1221.4412"
       x="-2701.1276" />
    <rect
       id="rect222"
       height="822.47619"
       width="3265.7143"
       y="-1572.2032"
       x="-3305.8895" />
    <rect
       id="rect216"
       height="42.333333"
       width="435.42857"
       y="701.70161"
       x="-2380.6038" />
    <rect
       id="rect210"
       height="72.571429"
       width="1239.7619"
       y="877.08256"
       x="-2187.08" />
    <rect
       id="rect202"
       height="1330.4762"
       width="1941.2857"
       y="187.65399"
       x="-3051.8895" />
    <rect
       id="rect196"
       height="880.92036"
       width="857.40064"
       y="-1653.8091"
       x="-4256.9031" />
    <rect
       id="rect190"
       height="199.57143"
       width="1300.2381"
       y="-931.15553"
       x="-3166.7943" />
    <rect
       id="rect184"
       height="229.80952"
       width="792.23809"
       y="-786.01268"
       x="-3130.5085" />
    <rect
       id="rect178"
       height="145.14286"
       width="1143"
       y="-1052.1079"
       x="-3263.5562" />
    <rect
       id="rect172"
       height="59.868374"
       width="1304.2753"
       y="-1059.4017"
       x="-3444.4038" />
    <rect
       id="rect164"
       height="85.526249"
       width="718.42049"
       y="-1273.2173"
       x="-1438.8132" />
    <rect
       id="rect152"
       height="2475.9849"
       width="3254.2738"
       y="-2141.3088"
       x="-2456.5756" />
    <rect
       id="rect146"
       height="889.47299"
       width="731.24943"
       y="-1658.0855"
       x="-4192.7584" />
    <rect
       id="rect140"
       height="4620.3809"
       width="7087.8095"
       y="-9252.6793"
       x="-4200.9371" />
    <rect
       id="rect134"
       height="11248.571"
       width="12361.333"
       y="-7946.3936"
       x="-330.46093" />
    <rect
       id="rect128"
       height="12.095238"
       width="30.238095"
       y="360.01113"
       x="-3698.9847" />
    <rect
       id="rect110"
       height="66.52381"
       width="495.90476"
       y="-1230.5127"
       x="-3650.6038" />
    <rect
       id="rect104"
       height="961.57143"
       width="807.35714"
       y="-1675.0127"
       x="-4228.1514" />
    <rect
       id="rect92"
       height="843.50263"
       width="752.63099"
       y="-1586.4572"
       x="-4214.14" />
    <rect
       id="rect86"
       height="15.119048"
       width="9.0714286"
       y="-202.41744"
       x="-6320.6276" />
    <rect
       x="-2.324204"
       y="108.7211"
       width="363.09231"
       height="85.479057"
       id="rect429" />
    <rect
       x="5.6813875"
       y="106.13865"
       width="392.53223"
       height="42.610406"
       id="rect419" />
    <rect
       x="0.77473466"
       y="104.58918"
       width="480.31322"
       height="53.566809"
       id="rect405" />
    <rect
       x="272.1753"
       y="73.955717"
       width="50.399452"
       height="52.225518"
       id="rect390" />
    <rect
       x="273.31659"
       y="73.773111"
       width="40.127825"
       height="43.916914"
       id="rect376" />
    <clipPath
       clipPathUnits="userSpaceOnUse"
       id="clipPath136">
      <path
         id="path138"
         style="fill:#ff0000;fill-opacity:1;fill-rule:nonzero;stroke:none;stroke-width:0.0159781"
         d="M 134.99998,6.9999936 V 62.166992 h 253.5 V 6.9999936 Z m 16.67888,30.2147494 c 0.0191,0 0.0382,0.0018 0.0572,0.0029 0.0254,0.0038 0.0516,-0.0039 0.0769,-3.04e-4 0.0208,0.003 0.0412,0.0086 0.0618,0.01295 0.0745,0.0164 0.1454,0.04509 0.21811,0.06732 0.0232,0.0071 0.047,0.0119 0.0702,0.01897 0.0327,0.01 0.0515,0.01774 0.0802,0.02905 -0.0339,0.06031 -0.0352,0.0877 -0.0398,0.09762 -7.5e-4,0.0029 -0.002,0.0055 -0.002,0.0085 -0.005,-0.0021 -0.01,-0.0039 -0.0149,-0.0058 -0.003,-9.9e-4 -0.007,-0.0021 -0.0117,-0.0036 -0.008,-0.0025 -0.0148,-0.0054 -0.0211,-0.0086 -0.007,-0.0023 -0.013,-0.0047 -0.0204,-0.007 -0.0254,-0.0077 -0.0515,-0.01322 -0.0769,-0.02097 -0.0693,-0.02116 -0.13682,-0.0487 -0.20781,-0.06438 -0.0116,-0.0033 -0.0228,-0.008 -0.0347,-0.0099 -0.0276,-0.0045 -0.0569,0.0053 -0.0846,0 -0.0157,-9.58e-4 -0.0348,-0.0047 -0.0507,-0.0035 -0.0328,0.0025 -0.0646,0.01565 -0.0978,0.01504 v 0 c -0.11297,-0.002 -0.11155,-0.09616 0,-0.114124 0.0106,-0.0017 0.0213,-0.0033 0.0319,-0.0051 0.0157,-0.0027 0.0313,-0.0071 0.0472,-0.0084 0.006,-5.27e-4 0.0127,-7.35e-4 0.0191,-7.51e-4 z" />
    </clipPath>
    <clipPath
       clipPathUnits="userSpaceOnUse"
       id="clipPath156">
      <path
         id="path158"
         style="fill:#ff0000;fill-opacity:1;fill-rule:nonzero;stroke:none;stroke-width:0.0159781"
         d="M 0,0 V 102.40568 H 399.99999 V 0 Z m 151.67886,37.214743 c 0.0191,0 0.0382,0.0018 0.0572,0.0029 0.0254,0.0038 0.0516,-0.0039 0.0769,-3.04e-4 0.0208,0.003 0.0412,0.0086 0.0618,0.01295 0.0745,0.0164 0.1454,0.04509 0.21811,0.06732 0.0232,0.0071 0.047,0.0119 0.0702,0.01897 0.0327,0.01 0.0515,0.01774 0.0802,0.02905 -0.0339,0.06031 -0.0352,0.0877 -0.0398,0.09762 -7.5e-4,0.0029 -0.002,0.0055 -0.002,0.0085 -0.005,-0.0021 -0.01,-0.0039 -0.0149,-0.0058 -0.003,-9.9e-4 -0.007,-0.0021 -0.0117,-0.0036 -0.008,-0.0025 -0.0148,-0.0054 -0.0211,-0.0086 -0.007,-0.0023 -0.013,-0.0047 -0.0204,-0.007 -0.0254,-0.0077 -0.0515,-0.01322 -0.0769,-0.02097 -0.0693,-0.02116 -0.13682,-0.0487 -0.20781,-0.06438 -0.0116,-0.0033 -0.0228,-0.008 -0.0347,-0.0099 -0.0276,-0.0045 -0.0569,0.0053 -0.0846,0 -0.0157,-9.58e-4 -0.0348,-0.0047 -0.0507,-0.0035 -0.0328,0.0025 -0.0646,0.01565 -0.0978,0.01504 v 0 c -0.11297,-0.002 -0.11155,-0.09616 0,-0.114124 0.0106,-0.0017 0.0213,-0.0033 0.0319,-0.0051 0.0157,-0.0027 0.0313,-0.0071 0.0472,-0.0084 0.006,-5.27e-4 0.0127,-7.35e-4 0.0191,-7.51e-4 z" />
    </clipPath>
    <clipPath
       clipPathUnits="userSpaceOnUse"
       id="clipPath345">
      <path
         id="path347"
         style="fill:#ff0000;fill-opacity:1;fill-rule:nonzero;stroke:none;stroke-width:0.0159781"
         d="M 9.1669905,12.953204 V 56.842919 H 388.58499 V 12.953204 Z m 142.5115795,24.261883 -1.5e-4,1.6e-4 c 0.0191,0 0.0382,0.0018 0.0572,0.0029 0.0254,0.0038 0.0516,-0.0039 0.0769,-3.03e-4 0.0208,0.003 0.0412,0.0086 0.0618,0.01295 0.0745,0.0164 0.14543,0.04507 0.21814,0.06731 0.0232,0.0071 0.047,0.01187 0.0702,0.01894 0.0327,0.01 0.0515,0.01765 0.0802,0.02896 -0.0339,0.06031 -0.0352,0.08779 -0.0398,0.09771 -7.7e-4,0.0029 -0.002,0.0055 -0.002,0.0085 -0.005,-0.0021 -0.01,-0.0039 -0.0149,-0.0058 -0.003,-9.91e-4 -0.007,-0.0021 -0.0117,-0.0036 -0.008,-0.0025 -0.0148,-0.0054 -0.0211,-0.0086 -0.007,-0.0023 -0.013,-0.0047 -0.0204,-0.007 -0.0254,-0.0077 -0.0515,-0.01319 -0.0769,-0.02094 -0.0693,-0.02116 -0.13681,-0.0487 -0.20781,-0.06438 -0.0116,-0.0033 -0.0228,-0.008 -0.0347,-0.0099 -0.0276,-0.0045 -0.0569,0.0053 -0.0846,0 -0.0157,-9.59e-4 -0.0348,-0.0047 -0.0507,-0.0035 -0.0328,0.0025 -0.0646,0.01565 -0.0978,0.01504 -0.11297,-0.002 -0.11155,-0.09616 0,-0.114125 0.0106,-0.0017 0.0213,-0.0033 0.0319,-0.0051 0.0157,-0.0027 0.0313,-0.0071 0.0472,-0.0084 0.006,-5.28e-4 0.0126,-7.67e-4 0.0189,-7.83e-4 z m 3.63845,1.253749 c 0.0165,3.36e-4 0.033,0.0018 0.0494,0.0046 0.005,8.95e-4 0.0137,0.0013 0.0206,0.002 0,10e-7 0,-2e-6 0,0 0.0466,-0.004 0.0944,-0.0038 0.13943,0.0089 5.5e-4,1.59e-4 -6e-4,9.1e-4 -0.001,0.0013 0.007,0.0059 9.9e-4,0.0015 0.0216,0.0015 0.0108,0 0.0217,0 0.0325,1.92e-4 0.0419,1.59e-4 0.0839,-0.0015 0.12582,2.55e-4 0.0726,0.0067 0.14586,1.6e-4 0.21808,-0.008 v -1.6e-4 c 0.0968,-0.01087 0.1737,0.0025 0.23022,0.03033 0.004,-1.59e-4 0.008,-1.59e-4 0.0113,-2.87e-4 0.0403,-0.0014 0.0795,-0.0041 0.11981,-0.0046 9.1e-4,-1.1e-5 0.002,0 0.003,0 5e-4,-0.0026 9.5e-4,-0.0052 9.9e-4,-0.0078 8.3e-4,-0.0043 0.004,-0.0063 0.008,-0.0065 0.0144,-7.66e-4 0.0447,0.01723 0.0691,0.02853 3.8e-4,-0.0035 8.4e-4,-0.007 9.9e-4,-0.01058 -0.002,-1.91e-4 -0.003,-4.47e-4 -0.004,-9.9e-4 -0.001,-6.39e-4 0.004,-9.11e-4 0.004,4.63e-4 v 5.27e-4 c 0.004,4.8e-4 0.008,5.28e-4 0.008,0.0035 -5e-4,0.0034 -0.001,0.0068 -0.002,0.01017 -0.002,-8.79e-4 -0.004,-0.0018 -0.006,-0.0028 -0.005,0.04272 -0.01,0.0854 -0.0146,0.128074 0.008,-0.04148 0.0154,-0.08303 0.0218,-0.124735 0.022,0.009 0.0361,0.0089 0.021,-0.02537 0.19811,0.004 0.39576,0.0017 0.58791,0.0455 0.009,0 0.0177,2.88e-4 0.0265,7.51e-4 0.0369,0.0019 0.0286,0.003 0.0663,0.0056 0.0187,0.0013 0.0375,0.0021 0.0563,0.0031 0.0824,0.006 0.0231,0.0019 0.0935,0.0062 0.0112,6.87e-4 0.0225,0.0018 0.0337,0.0022 0.0416,0.0012 0.0833,-4.95e-4 0.12474,0.003 0.0416,0.003 -0.0159,-7.03e-4 0.0615,8.79e-4 0.0733,0.0015 0.14581,0.01306 0.21911,0.01482 0.0357,0.0031 0.0715,0.0056 0.10723,0.0092 0.0143,0.0015 0.0286,0.0037 0.0429,0.0053 0.003,3.52e-4 0.007,-6e-6 0.0105,-3.99e-4 5.2e-4,-0.01035 8.7e-4,-0.0099 9.5e-4,-2.88e-4 -3.5e-4,3e-6 -6.8e-4,-8e-6 -8.7e-4,1.6e-4 0,0.0011 -1.6e-4,0.0012 -1.6e-4,0.0026 h 9.5e-4 c -1e-5,-4.47e-4 0,-0.0019 0,-0.0025 0.012,-0.0016 0.0255,-0.0046 0.0294,0.0014 0.007,-2.72e-4 0.0147,-4.96e-4 0.0221,-9.75e-4 0.0309,-0.002 0.0618,-0.0049 0.0926,-0.0081 0.0643,-0.02145 0.12743,-0.04602 0.19476,-0.05717 0.01,-0.0016 0.0189,-0.0025 0.0276,-0.0028 l -9.4e-4,3.68e-4 h 2.9e-4 c 0.0402,-9.43e-4 0.07,0.01131 0.0879,0.02946 0.003,-2.88e-4 0.005,-7.35e-4 0.008,-9.11e-4 10e-4,0 0.002,0.0011 0.003,9.11e-4 0.0835,-0.01719 0.009,-0.0044 0.0474,-0.0108 0.0124,-0.0027 0.0249,-0.0055 0.0373,-0.0081 6.7e-4,-1.59e-4 -0.002,9.91e-4 -0.002,8.79e-4 0.0122,-0.0021 0.0243,-0.0049 0.0365,-0.0069 0.007,-0.0012 0.0149,-0.0015 0.0222,-0.0026 0.0139,-0.0019 0.0439,-0.0069 0.0591,-0.0093 0.0148,-0.0022 0.0405,-0.0054 0.0657,-0.0081 0.0172,-0.0058 0.0346,-0.01034 0.0482,-0.01192 0.0146,-0.0017 0.0292,-0.0027 0.0438,-0.0038 0.007,-0.0015 0.0138,-0.0028 0.0207,-0.0038 9.9e-4,-2.88e-4 0.003,-7.03e-4 0.004,-9.43e-4 0.0208,-0.0029 0.0416,-0.0062 0.0624,-0.0087 0.004,-4.48e-4 0.008,-4.48e-4 0.0114,-3.36e-4 h 2.5e-4 c 0.004,1.6e-4 0.008,3.36e-4 0.0114,3.36e-4 h 0.0713 c 0.0447,0 0.0847,0.0047 0.12021,0.01301 0.009,-0.0014 0.0123,-0.0019 0.0257,-0.004 0.0649,-0.0055 0.0713,-0.0073 0.13459,-0.0081 0.007,-1.6e-4 0.021,-0.0015 0.0281,-0.0013 0.005,-0.002 0.01,-0.0041 0.0147,-0.006 0.004,-0.0017 0.009,-0.0019 0.014,-0.0017 l 0.003,-1.92e-4 c 0.005,2.08e-4 0.01,7.99e-4 0.0144,7.83e-4 0.0141,-1.59e-4 0.0281,1.3e-5 0.0421,4.96e-4 0.0526,0.0016 0.10499,0.0064 0.15741,0.01058 0.005,8.63e-4 0.0137,0.0024 0.0204,0.0035 0.007,-0.0035 0.0179,-0.0038 0.027,-0.0011 -0.007,2.24e-4 -0.0171,9.91e-4 -0.0247,0.0015 0.009,0.0015 0.0192,0.0035 0.0295,0.0055 0.002,-3.2e-4 0.004,-6.55e-4 0.006,-9.75e-4 -0.003,-0.0026 -0.006,-0.0047 -0.0109,-0.006 0.0126,-3.99e-4 0.0272,-1.59e-4 0.0481,7.51e-4 0.0212,-0.0027 0.0418,-0.0045 0.0612,-0.0048 0.0634,-9.43e-4 0.11661,0.0106 0.1595,0.03027 0.0166,0.0022 0.0332,0.0044 0.0498,0.0061 0.43269,0.04457 0.38506,0.471906 -0.0485,0.436713 -0.066,-0.0054 -0.13095,-0.01924 -0.19676,-0.02637 -0.002,-2.56e-4 -0.005,-5.44e-4 -0.008,-8.15e-4 -0.0622,0.0098 -0.12387,0.02253 -0.1865,0.0293 -0.0162,0.0018 -0.0467,0.01924 -0.0491,0.0035 -0.0477,0.003 -0.0533,-0.0034 -0.0467,-0.04341 -0.0289,0.0076 -0.0902,0.0024 -0.11435,0.0027 -0.0237,3.04e-4 -0.0626,0.0046 -0.0841,0.0066 -0.0559,0.0099 -0.0423,0.0067 -0.10401,0.0215 -0.003,8.31e-4 -0.007,0.0017 -0.0105,0.0025 0.005,-0.0028 0.009,-0.0065 0.009,-0.01242 -6.7e-4,-0.0079 -0.002,-0.01584 -0.003,-0.02375 -0.003,4.63e-4 -0.007,8.63e-4 -0.0106,0.0012 -0.007,0.01371 -0.0131,0.02746 -0.0191,0.04126 l -1.6e-4,1.6e-4 c 0.006,-0.0016 0.0121,-0.0031 0.018,-0.0046 -0.006,0.0022 -0.0122,0.004 -0.0186,0.0057 1.8e-4,-4e-4 3.7e-4,-7.99e-4 5.3e-4,-0.0011 -0.005,0.0012 -0.009,0.0023 -0.0137,0.0037 -0.001,3.03e-4 0.002,0.0018 0.003,0.0013 0.002,-0.0012 0.005,-0.002 0.008,-0.0028 -0.001,0.0028 -0.003,0.0056 -0.004,0.0084 -0.002,0.0037 -0.007,0.0035 -0.0112,0.0038 -0.018,0.0017 -0.0362,0.0028 -0.0543,0.004 0.003,-0.0149 0.004,-0.03417 0.003,-0.05602 h -0.0325 c -0.001,0.0099 -0.0242,0.0051 -0.0401,0.0051 -0.004,9.43e-4 -0.009,0.0018 -0.0132,0.0026 0.005,0.01763 0.009,0.03527 0.0137,0.05299 0.0226,-0.0016 0.0451,-0.0029 0.0677,-0.0044 -0.01,0.04702 -0.041,0.05236 -0.11721,-0.02706 -0.005,-0.0057 -0.0123,-0.01098 -0.0195,-0.0161 -0.003,7.51e-4 -0.008,0.0019 -0.007,0.0015 0.002,-8.31e-4 0.004,-0.0015 0.006,-0.0022 -0.006,0 -0.0123,-2.24e-4 -0.0185,-2.56e-4 0.009,-0.0013 0.0111,-0.0014 0.0159,-0.0019 -5.6e-4,-3.84e-4 -9.9e-4,-8.15e-4 -0.002,-0.0012 -0.004,8.79e-4 -0.01,0.0021 -0.0145,0.0031 h -2.5e-4 c -0.0202,0.0043 -0.0517,0.01128 -0.0632,0.01361 0.0193,-0.0031 0.0419,-0.0058 0.0517,-0.0033 0.009,0.0022 -0.0177,0.0028 -0.0266,0.0038 -0.0117,0.0012 -0.0236,0.0016 -0.0353,0.0028 -3.7e-4,0 -3.5e-4,8.63e-4 -9.7e-4,9.43e-4 -0.005,10e-4 -0.0104,0.0016 -0.0156,0.0023 -0.0309,0.006 -0.0622,0.0089 -0.0932,0.01345 -5.5e-4,0 0.002,4.16e-4 0.002,5.28e-4 -0.0101,0.0018 -0.0202,0.0031 -0.0303,0.0047 -0.005,7.98e-4 0.01,-0.0015 0.0149,-0.0022 -0.0121,0.0026 -0.0243,0.0049 -0.0364,0.0077 -0.004,9.75e-4 -0.008,0.0027 -0.0126,0.0036 -0.0559,0.01079 -0.11275,0.01576 -0.1692,0.02272 -0.10616,0.0048 -0.21131,0.02104 -0.31732,0.02793 -0.0704,0.0028 -0.0437,0.0011 -0.0802,0.0036 -2.9e-4,-0.01497 -3.8e-4,-0.02264 -6.5e-4,-0.03676 -0.0115,0.138375 -0.0233,0.192863 -0.0264,-0.09624 -0.004,0.04273 -0.008,0.08682 -0.0136,0.130633 -9e-4,0.0072 -0.0145,-0.0011 -0.0217,-0.0019 -0.0176,-0.002 -0.0351,-0.0046 -0.0528,-0.0064 -0.0307,-0.0031 -0.0615,-0.005 -0.0922,-0.0076 -0.0127,-4.64e-4 -0.0254,-5.28e-4 -0.038,-0.0014 -0.0642,-0.0046 -0.0672,-0.0071 -0.12608,-0.01083 -0.0747,-0.0048 -0.005,1.6e-4 -0.0547,-6.23e-4 -0.0148,-2.24e-4 -0.0296,-0.0011 -0.0443,-0.0016 -0.0116,-5.59e-4 -0.0231,-0.0013 -0.0347,-0.0017 -0.0112,-4.15e-4 -0.0224,-5.43e-4 -0.0337,-7.82e-4 -0.0123,0 -0.0247,3.03e-4 -0.037,0 -0.0179,-5.44e-4 -0.0358,-0.0017 -0.0537,-0.0027 -0.0674,0.02072 -0.15563,0.02106 -0.2598,-0.01083 -0.004,-0.0011 -0.007,-0.002 -0.0108,-0.0031 -0.0886,-0.0053 -0.0191,1.92e-4 -0.10192,-0.0099 -0.0322,-0.0039 -0.0427,-0.0032 -0.0759,-0.0084 -0.046,-0.0088 -0.0287,-0.0061 -0.0514,-0.0094 0.0287,0.0046 0.0485,0.0028 0.0664,-0.0037 -0.0865,-0.0098 -0.17408,-0.01107 -0.26148,-0.01292 -0.0413,-8.79e-4 -0.0826,-0.0016 -0.12393,-0.0025 -0.023,-2.55e-4 -0.046,-4.31e-4 -0.069,-6.55e-4 -3.5e-4,0.0031 -7.3e-4,0.0061 -9.9e-4,0.0092 -0.004,-1.6e-4 -0.008,-1.6e-4 -0.0114,-2.88e-4 -0.001,9.91e-4 -0.003,6.23e-4 -0.006,-1.6e-4 -0.008,-3.03e-4 -0.0168,-7.03e-4 -0.0252,-5.91e-4 -0.0117,1.6e-4 -0.0233,0.0013 -0.035,0.0019 -0.0183,8.63e-4 -0.0365,0.0018 -0.0548,0.0024 -0.0192,6.87e-4 -0.0384,7.35e-4 -0.0576,0.0016 -0.0202,8.95e-4 -0.0405,0.0024 -0.0608,0.0038 0.0188,-0.0053 0.0174,-0.0054 -0.003,-0.0024 -0.002,9.91e-4 -0.003,0.002 -0.004,0.0031 10e-4,-1.59e-4 0.003,-2.23e-4 0.004,-3.03e-4 -0.003,7.03e-4 -0.003,10e-4 -0.008,0.0022 0.001,-7.67e-4 0.002,-0.0015 0.003,-0.0022 -0.004,2.72e-4 -0.008,5.27e-4 -0.0125,7.83e-4 -0.005,1.76e-4 -0.009,2.24e-4 -0.0135,3.36e-4 -2.1e-4,0 -5.1e-4,-4e-6 -7.2e-4,1.59e-4 -1e-5,0 0,0 0,1.6e-4 -0.0429,0.0012 -0.0739,1.6e-4 -0.0941,-0.0093 0.004,0.0046 0.0103,0.0087 0.017,0.01233 0.006,5.28e-4 0.0117,0.0013 0.0179,0.0016 0.004,2.4e-4 0.009,0.0012 0.0133,7.83e-4 0.0181,-0.0018 0.0324,-0.0037 0.0459,-0.0053 -0.006,0.02293 -0.0484,0.01832 -0.077,0.003 0,0 0,0 -1.6e-4,0 -1.6e-4,0 -2.5e-4,-1.6e-4 -3.7e-4,-1.6e-4 -0.0518,-0.0046 -0.0967,-0.01526 -0.13469,-0.03033 -0.05,0.0017 -0.10002,9.1e-4 -0.14991,-0.0029 0,3.99e-4 7.3e-4,4.95e-4 0.001,5.27e-4 -0.0308,0.0011 -0.0618,7.19e-4 -0.0927,6.55e-4 -0.0169,-9.1e-4 -0.034,8.79e-4 -0.0509,-1.59e-4 -0.0167,-9.91e-4 -0.0334,-0.0027 -0.0501,-0.0041 -0.0237,0.007 -0.0439,-0.0124 -0.0665,-0.01348 -0.003,-1.6e-4 0.006,0.0017 0.008,0.003 2.4e-4,1.59e-4 -6.2e-4,6.39e-4 -6.2e-4,9.42e-4 1.7e-4,3.84e-4 0.002,3.84e-4 0.001,4.32e-4 -0.002,4.63e-4 -0.004,5.11e-4 -0.006,7.51e-4 -0.0191,0.0024 -0.0383,0.0017 -0.0574,0.0011 -0.002,0 -0.004,1.76e-4 -0.006,-1.59e-4 -0.0272,-0.0038 -0.037,-0.0055 -0.0427,-0.0066 -0.008,0.0013 -0.002,10e-4 -0.0278,0.0014 -0.0162,-6.71e-4 -0.0323,-4.15e-4 -0.0485,-3.67e-4 -0.0139,0 -0.0279,0 -0.0419,0 -0.43497,-7.51e-4 -0.4342,-0.440189 7.8e-4,-0.439398 0.0133,0 0.0266,-9e-6 0.04,0 0.0164,0 0.0327,-2.87e-4 0.0491,3.36e-4 0.0128,-0.0011 0.0256,-0.0018 0.0383,-0.0015 z m 0.05,0.0082 c -0.001,1.76e-4 -0.003,3.52e-4 -0.004,5.28e-4 0.002,-1.76e-4 0.003,-2.72e-4 0.005,-4.32e-4 -1.6e-4,0 -2.9e-4,0 -4.3e-4,-1.59e-4 z m 3.74639,0.0087 h -1.6e-4 c -0.0109,-2.4e-4 -0.0208,6.23e-4 -0.0248,0.0093 -0.002,0.0037 -0.003,0.0075 -0.005,0.01114 0.0151,-0.007 0.0304,-0.01368 0.0457,-0.02016 -0.005,1.6e-4 -0.0106,-2.24e-4 -0.0158,-3.35e-4 z m 0.29207,0.0028 c -5e-4,2.4e-4 -9.9e-4,3.84e-4 -0.002,6.55e-4 0.001,-1.6e-4 0.003,-1.76e-4 0.004,-2.55e-4 -7.8e-4,-1.6e-4 -0.002,-2.88e-4 -0.002,-4e-4 z m -0.75391,0.0063 c -3.6e-4,1.6e-4 -7.3e-4,1.6e-4 -9.9e-4,2.56e-4 2.4e-4,0 8.8e-4,-1.6e-4 9.9e-4,-1.92e-4 z m -0.003,4.95e-4 c -1.5e-4,0 -3.1e-4,0 -4.3e-4,1.6e-4 1.6e-4,-1.6e-5 3.2e-4,0 4.3e-4,0 z m -4.3e-4,1.6e-4 c -0.002,2.24e-4 -0.004,4.64e-4 -0.007,0.0011 -9.6e-4,1.75e-4 0.002,6e-6 0.003,-2.56e-4 0.002,-2.24e-4 0.003,-5.43e-4 0.004,-8.79e-4 z m 0.13357,0.345307 v 0 c -0.019,0.02359 -0.0357,0.04968 -0.055,0.07296 0.005,-0.0026 0.0106,-0.0057 0.0152,-0.0096 0.0147,-0.01235 0.0386,-0.03825 0.0584,-0.06185 -0.006,-5.44e-4 -0.0124,-0.001 -0.0186,-0.0015 z m -3.44231,0.06366 c -0.0173,0.0017 -0.0255,0.0027 -0.0306,0.0035 0.006,-1.6e-4 0.0112,-6.4e-4 0.0165,-0.0012 0.005,-4.63e-4 0.0188,-0.0028 0.0141,-0.0023 z m -0.0514,0.0013 c 0.006,0.0017 0.0113,0.0022 0.0171,0.0023 -0.007,-0.0015 -0.003,-0.0013 -0.0171,-0.0023 z m 4.01028,0.0543 h -3.7e-4 c -0.005,0.0011 -0.01,0.002 -0.0156,0.0033 -0.002,4.32e-4 0.004,1.6e-4 0.006,-3.19e-4 0.003,-7.99e-4 0.007,-0.0019 0.01,-0.003 z" />
    </clipPath>
  </defs>
  <sodipodi:namedview
     id="base"
     pagecolor="#ffffff"
     bordercolor="#666666"
     borderopacity="1.0"
     inkscape:pageopacity="0.0"
     inkscape:pageshadow="2"
     inkscape:zoom="0.0875"
     inkscape:cx="11110.369"
     inkscape:cy="3516.9994"
     inkscape:document-units="mm"
     inkscape:current-layer="layer1"
     inkscape:document-rotation="0"
     showgrid="false"
     fit-margin-top="0"
     fit-margin-left="0"
     fit-margin-right="0"
     fit-margin-bottom="0"
     inkscape:snap-midpoints="false"
     inkscape:snap-bbox="true"
     inkscape:snap-others="false"
     inkscape:object-nodes="false"
     inkscape:snap-nodes="false"
     inkscape:snap-grids="false"
     inkscape:snap-to-guides="false"
     inkscape:window-width="2560"
     inkscape:window-height="1377"
     inkscape:window-x="1912"
     inkscape:window-y="-8"
     inkscape:window-maximized="1">
    <inkscape:grid
       type="xygrid"
       id="grid368" />
  </sodipodi:namedview>
  <metadata
     id="metadata73">
    <rdf:RDF>
      <cc:Work
         rdf:about="">
        <dc:format>image/svg+xml</dc:format>
        <dc:type
           rdf:resource="http://purl.org/dc/dcmitype/StillImage" />
        <dc:title></dc:title>
      </cc:Work>
    </rdf:RDF>
  </metadata>
  <g
     inkscape:label="Warstwa 1"
     inkscape:groupmode="layer"
     id="layer1"
     transform="translate(6450.6514,1777.8222)">
    <path
       d="m -4312.8179,-1693.1555 h 955.5238 v 991.80949 h -955.5238 z"
       style="fill:#ffffff;fill-opacity:1;fill-rule:evenodd;stroke-width:0.264583"
       id="rect1152" />
    <text
       transform="matrix(17.393287,0,0,18.082181,-6378.5974,-2521.6073)"
       xml:space="preserve"
       id="text403"
       style="font-style:normal;font-weight:normal;font-size:26.4171px;line-height:1.25;font-family:sans-serif;letter-spacing:0px;word-spacing:0px;white-space:pre;shape-inside:url(#rect405);fill:#000000;fill-opacity:1;stroke:none;"><tspan
         x="0.77539062"
         y="128.69097"><tspan
           style="font-style:normal;font-variant:normal;font-weight:normal;font-stretch:normal;font-size:26.4171px;font-family:Arial;-inkscape-font-specification:Arial;fill:#000000">SPRZĘT I MEBLE KUCHENNE</tspan></tspan></text>
    <g
       id="svgg"
       transform="matrix(16.559137,0,0,16.559137,-6450.6514,-1777.8222)">
      <path
         id="path351"
         style="fill:#bb1304;fill-opacity:1;stroke-width:1.0027"
         d="M 7.8134489,10.824338 7.6983582,59.264304 130.03257,58.37149 131.11519,9.8310555 Z"
         sodipodi:nodetypes="ccccc" />
      <path
         fill-rule="evenodd"
         fill="#040404"
         stroke="none"
         d="M 0,34.833 V 69.667 H 200 400 V 34.833 0 H 200 0 v 34.833 m 184.36955,-0.291 -0.042,27.541 -26.53555,0.043 -25.63269,0.042 V 34.584 7 h 25.67469 26.57855 l -0.043,27.542"
         id="path2"
         clip-path="url(#clipPath156)"
         sodipodi:nodetypes="cccccccccccccccccc" />
      <g
         aria-label="C"
         transform="translate(1.8260671,-7.4412234)"
         id="text388"
         style="font-style:normal;font-weight:normal;font-size:31.9562px;line-height:1.25;font-family:sans-serif;letter-spacing:0px;word-spacing:0px;white-space:pre;shape-inside:url(#rect390);fill:#000000;fill-opacity:1;stroke:none" />
      <text
         xml:space="preserve"
         id="text417"
         style="font-style:normal;font-weight:normal;font-size:25.56493936px;line-height:1.25;font-family:sans-serif;letter-spacing:0px;word-spacing:0px;white-space:pre;shape-inside:url(#rect419);fill:#000000;fill-opacity:1;stroke:none;" />
      <text
         xml:space="preserve"
         style="font-style:normal;font-weight:normal;font-size:25.5649px;line-height:1.25;font-family:sans-serif;letter-spacing:0px;word-spacing:0px;fill:#000000;fill-opacity:1;stroke:none;stroke-width:0.0159781"
         x="188.0023"
         y="117.50145"
         id="text425"><tspan
           sodipodi:role="line"
           id="tspan423"
           x="188.0023"
           y="117.50145"
           style="font-size:25.5649px;stroke-width:0.0159781" /></text>
      <text
         xml:space="preserve"
         id="text427"
         style="font-style:normal;font-weight:normal;font-size:25.5649px;line-height:1.25;font-family:sans-serif;letter-spacing:0px;word-spacing:0px;white-space:pre;shape-inside:url(#rect429);fill:#000000;fill-opacity:1;stroke:none;" />
    </g>
    <text
       style="fill:black;fill-opacity:1;stroke:none;font-family:sans-serif;font-style:normal;font-weight:normal;font-size:10.58333333px;line-height:1.25;letter-spacing:0px;word-spacing:0px;white-space:pre;shape-inside:url(#rect86);"
       id="text84"
       xml:space="preserve" />
    <text
       style="font-style:normal;font-weight:normal;font-size:1058.33px;line-height:1.25;font-family:sans-serif;letter-spacing:0px;word-spacing:0px;white-space:pre;shape-inside:url(#rect92);fill:#000000;fill-opacity:1;stroke:none;"
       id="text90"
       xml:space="preserve" />
    <text
       style="font-style:normal;font-weight:normal;font-size:881.944px;line-height:1.25;font-family:sans-serif;letter-spacing:0px;word-spacing:0px;white-space:pre;shape-inside:url(#rect104);fill:#000000;fill-opacity:1;stroke:none;"
       id="text102"
       xml:space="preserve"><tspan
         style="visibility:hidden"
         x="-4228.1523"
         y="91.182815"><tspan
           style="font-size:846.667px">B</tspan></tspan></text>
    <text
       style="fill:black;fill-opacity:1;stroke:none;font-family:sans-serif;font-style:normal;font-weight:normal;font-size:10.58333333px;line-height:1.25;letter-spacing:0px;word-spacing:0px;white-space:pre;shape-inside:url(#rect110);"
       id="text108"
       xml:space="preserve" />
    <text
       style="fill:black;fill-opacity:1;stroke:none;font-family:sans-serif;font-style:normal;font-weight:normal;font-size:10.58333333px;line-height:1.25;letter-spacing:0px;word-spacing:0px;white-space:pre;shape-inside:url(#rect128);"
       id="text126"
       xml:space="preserve" />
    <text
       style="fill:black;fill-opacity:1;stroke:none;font-family:sans-serif;font-style:normal;font-weight:normal;font-size:10.58333333px;line-height:1.25;letter-spacing:0px;word-spacing:0px;white-space:pre;shape-inside:url(#rect134);"
       id="text132"
       xml:space="preserve" />
    <text
       style="fill:black;fill-opacity:1;stroke:none;font-family:sans-serif;font-style:normal;font-weight:normal;font-size:10.58333333px;line-height:1.25;letter-spacing:0px;word-spacing:0px;white-space:pre;shape-inside:url(#rect140);"
       id="text138"
       xml:space="preserve" />
    <text
       style="font-style:normal;font-weight:normal;font-size:10.5833px;line-height:1.25;font-family:sans-serif;letter-spacing:0px;word-spacing:0px;white-space:pre;shape-inside:url(#rect146);fill:#000000;fill-opacity:1;stroke:none;"
       id="text144"
       xml:space="preserve" />
    <text
       style="fill:black;fill-opacity:1;stroke:none;font-family:sans-serif;font-style:normal;font-weight:normal;font-size:10.58333333px;line-height:1.25;letter-spacing:0px;word-spacing:0px;white-space:pre;shape-inside:url(#rect164);"
       id="text162"
       xml:space="preserve" />
    <text
       style="fill:black;fill-opacity:1;stroke:none;font-family:sans-serif;font-style:normal;font-weight:normal;font-size:10.58333333px;line-height:1.25;letter-spacing:0px;word-spacing:0px;white-space:pre;shape-inside:url(#rect172);"
       id="text170"
       xml:space="preserve" />
    <text
       style="fill:black;fill-opacity:1;stroke:none;font-family:sans-serif;font-style:normal;font-weight:normal;font-size:10.58333333px;line-height:1.25;letter-spacing:0px;word-spacing:0px;white-space:pre;shape-inside:url(#rect178);"
       id="text176"
       xml:space="preserve" />
    <text
       style="fill:black;fill-opacity:1;stroke:none;font-family:sans-serif;font-style:normal;font-weight:normal;font-size:10.58333333px;line-height:1.25;letter-spacing:0px;word-spacing:0px;white-space:pre;shape-inside:url(#rect184);"
       id="text182"
       xml:space="preserve" />
    <text
       style="fill:black;fill-opacity:1;stroke:none;font-family:sans-serif;font-style:normal;font-weight:normal;font-size:10.58333333px;line-height:1.25;letter-spacing:0px;word-spacing:0px;white-space:pre;shape-inside:url(#rect190);"
       id="text188"
       xml:space="preserve" />
    <text
       style="fill:black;fill-opacity:1;stroke:none;font-family:sans-serif;font-style:normal;font-weight:normal;font-size:10.58333333px;line-height:1.25;letter-spacing:0px;word-spacing:0px;white-space:pre;shape-inside:url(#rect196);"
       id="text194"
       xml:space="preserve" />
    <g
       style="font-style:normal;font-weight:normal;font-size:1058.33px;line-height:1.25;font-family:sans-serif;letter-spacing:0px;word-spacing:0px;white-space:pre;shape-inside:url(#rect202);fill:#000000;fill-opacity:1;stroke:none"
       id="text200"
       transform="matrix(1.0690946,0,0,0.98403433,-1022.1893,-1959.1597)"
       aria-label="B">
      <path
         id="path272"
         style="font-style:normal;font-variant:normal;font-weight:900;font-stretch:normal;font-family:Arial;-inkscape-font-specification:'Arial Heavy'"
         d="m -2973.8575,395.62672 h 438.2147 q 109.5537,0 167.9479,54.26008 58.911,54.26008 58.911,134.3583 0,67.17914 -41.8578,115.23807 -27.9052,32.03929 -81.6485,50.64275 81.6485,19.63698 119.8889,67.69591 38.7572,47.54216 38.7572,119.88894 0,58.91094 -27.3884,105.93633 -27.3884,47.0254 -74.9306,74.4138 -29.4555,17.0532 -88.8832,24.8046 -79.0647,10.3353 -104.9028,10.3353 h -404.1084 z m 236.1605,297.13854 h 101.8023 q 54.7768,0 75.9641,-18.60346 21.704,-19.12022 21.704,-54.77684 0,-33.07281 -21.704,-51.67627 -21.1873,-18.60345 -74.4138,-18.60345 h -103.3526 z m 0,297.6553 h 119.3722 q 60.4612,0 85.2659,-21.18727 24.8046,-21.70403 24.8046,-57.87742 0,-33.58957 -24.8046,-53.74332 -24.2879,-20.67051 -85.7827,-20.67051 h -118.8554 z" />
    </g>
    <text
       style="fill:black;fill-opacity:1;stroke:none;font-family:sans-serif;font-style:normal;font-weight:normal;font-size:10.58333333px;line-height:1.25;letter-spacing:0px;word-spacing:0px;white-space:pre;shape-inside:url(#rect210);"
       id="text208"
       xml:space="preserve" />
    <text
       style="fill:black;fill-opacity:1;stroke:none;font-family:sans-serif;font-style:normal;font-weight:normal;font-size:10.58333333px;line-height:1.25;letter-spacing:0px;word-spacing:0px;white-space:pre;shape-inside:url(#rect216);"
       id="text214"
       xml:space="preserve" />
    <text
       style="font-style:normal;font-weight:normal;font-size:1058.33px;line-height:1.25;font-family:sans-serif;letter-spacing:0px;word-spacing:0px;white-space:pre;shape-inside:url(#rect222);fill:#000000;fill-opacity:1;stroke:none;"
       id="text220"
       xml:space="preserve"><tspan
         style="visibility:hidden"
         x="-3305.8887"
         y="215.81994"><tspan
           dx="0 833.02142 740.00421 446.48291 723.46777"
           style="shape-inside:url(#rect222)">OCIAN</tspan></tspan></text>
    <text
       style="fill:black;fill-opacity:1;stroke:none;font-family:sans-serif;font-style:normal;font-weight:normal;font-size:10.58333333px;line-height:1.25;letter-spacing:0px;word-spacing:0px;white-space:pre;shape-inside:url(#rect228);"
       id="text226"
       xml:space="preserve" />
    <text
       style="fill:black;fill-opacity:1;stroke:none;font-family:sans-serif;font-style:normal;font-weight:normal;font-size:10.58333333px;line-height:1.25;letter-spacing:0px;word-spacing:0px;white-space:pre;shape-inside:url(#rect234);"
       id="text232"
       xml:space="preserve" />
    <text
       style="fill:black;fill-opacity:1;stroke:none;font-family:sans-serif;font-style:normal;font-weight:normal;font-size:10.58333333px;line-height:1.25;letter-spacing:0px;word-spacing:0px;white-space:pre;shape-inside:url(#rect240);"
       id="text238"
       xml:space="preserve" />
    <text
       style="font-style:normal;font-weight:normal;font-size:1058.33px;line-height:1.25;font-family:sans-serif;letter-spacing:0px;word-spacing:0px;white-space:pre;shape-inside:url(#rect246);fill:#000000;fill-opacity:1;stroke:none;"
       id="text244"
       xml:space="preserve"><tspan
         style="visibility:hidden"
         x="-3293.7949"
         y="2169.2008"><tspan
           style="font-size:987.778px">O</tspan></tspan></text>
    <text
       style="fill:black;fill-opacity:1;stroke:none;font-family:sans-serif;font-style:normal;font-weight:normal;font-size:10.58333333px;line-height:1.25;letter-spacing:0px;word-spacing:0px;white-space:pre;shape-inside:url(#rect254);"
       id="text252"
       xml:space="preserve" />
    <g
       style="font-style:normal;font-weight:normal;font-size:1058.33px;line-height:1.25;font-family:sans-serif;letter-spacing:-26.4583px;word-spacing:-0.494771px;white-space:pre;shape-inside:url(#rect260);fill:#000000;fill-opacity:1;stroke:none"
       id="text258"
       transform="matrix(0.94042507,0,0,1,7763.8571,-1898.9524)"
       aria-label="OCIAN">
      <path
         id="path275"
         style="font-style:normal;font-variant:normal;font-weight:900;font-stretch:normal;font-family:Arial;-inkscape-font-specification:'Arial Heavy';fill:#ffffff"
         d="m -11797.07,696.31138 q 0,-185.5178 103.353,-288.87033 103.352,-103.35254 287.836,-103.35254 189.136,0 291.455,101.80225 102.319,101.28548 102.319,284.21947 0,132.80801 -44.959,218.07385 -44.441,84.74908 -129.19,132.29122 -84.233,47.0254 -210.323,47.0254 -128.157,0 -212.389,-40.8242 -83.716,-40.8243 -135.909,-129.19069 -52.193,-88.36642 -52.193,-221.17443 z m 234.094,1.03353 q 0,114.72131 42.374,164.84729 42.891,50.12598 116.272,50.12598 75.447,0 116.788,-49.09245 41.341,-49.09246 41.341,-176.21608 0,-106.96987 -43.408,-156.06232 -42.891,-49.60922 -116.788,-49.60922 -70.797,0 -113.688,50.12598 -42.891,50.12598 -42.891,165.88082 z" />
      <path
         id="path277"
         style="font-style:normal;font-variant:normal;font-weight:900;font-stretch:normal;font-family:Arial;-inkscape-font-specification:'Arial Heavy';fill:#ffffff"
         d="m -10407.082,765.04082 205.155,62.01152 q -20.67,86.29937 -65.112,144.17679 -44.442,57.87737 -110.587,87.33287 -65.629,29.4555 -167.431,29.4555 -123.507,0 -202.055,-35.6566 -78.031,-36.1734 -134.875,-126.60689 -56.844,-90.43347 -56.844,-231.50968 0,-188.10161 99.736,-288.87033 100.252,-101.28549 283.186,-101.28549 143.143,0 224.791,57.87742 82.166,57.87742 121.956,177.76636 l -206.705,45.99188 q -10.852,-34.6231 -22.737,-50.64274 -19.637,-26.87166 -48.059,-41.34102 -28.422,-14.46935 -63.562,-14.46935 -79.581,0 -121.956,64.07857 -32.039,47.54217 -32.039,149.34441 0,126.0901 38.24,173.1155 38.241,46.50864 107.487,46.50864 67.179,0 101.285,-37.72367 34.623,-37.72368 50.126,-109.55369 z" />
      <path
         id="path279"
         style="font-style:normal;font-variant:normal;font-weight:900;font-stretch:normal;font-family:Arial;-inkscape-font-specification:'Arial Heavy';fill:#ffffff"
         d="m -10105.913,317.00758 h 234.6107 v 757.57412 h -234.6107 z" />
      <path
         id="path281"
         style="font-style:normal;font-variant:normal;font-weight:900;font-stretch:normal;font-family:Arial;-inkscape-font-specification:'Arial Heavy';fill:#ffffff"
         d="m -9264.2095,949.52509 h -266.6496 l -36.6901,125.05661 h -239.2611 l 284.7362,-757.57412 h 255.2807 l 284.7363,757.57412 h -244.9455 z m -49.0925,-163.81376 -83.7155,-272.33393 -83.1988,272.33393 z" />
      <path
         id="path283"
         style="font-style:normal;font-variant:normal;font-weight:900;font-stretch:normal;font-family:Arial;-inkscape-font-specification:'Arial Heavy';fill:#ffffff"
         d="m -8932.5513,317.00758 h 218.5906 l 285.253,419.09453 V 317.00758 h 220.6577 v 757.57412 h -220.6577 l -283.7027,-415.99399 v 415.99399 h -220.1409 z" />
    </g>
    <text
       style="fill:black;fill-opacity:1;stroke:none;font-family:sans-serif;font-style:normal;font-weight:normal;font-size:10.58333333px;line-height:1.25;letter-spacing:0px;word-spacing:0px;white-space:pre;shape-inside:url(#rect268);"
       id="text266"
       xml:space="preserve" />
    <g
       style="font-style:normal;font-weight:normal;font-size:1058.33px;line-height:1.25;font-family:sans-serif;letter-spacing:0px;word-spacing:0px;white-space:pre;shape-inside:url(#rect310);fill:#000000;fill-opacity:1;stroke:none"
       id="text308"
       transform="matrix(0.94654777,0,0,0.98020904,-510.57269,-2206.8914)"
       aria-label="MIX">
      <path
         id="path1145"
         style="font-style:normal;font-variant:normal;font-weight:900;font-stretch:normal;font-family:Arial;-inkscape-font-specification:'Arial Heavy';fill:#bb1304;fill-opacity:1"
         d="m -6191.8389,649.55641 h 307.9905 l 118.8554,460.95229 118.3387,-460.95229 h 306.957 v 757.57409 h -191.2022 V 829.38982 l -148.3109,577.74068 h -173.1155 L -6000.12,829.38982 v 577.74068 h -191.7189 z" />
      <path
         id="path1147"
         style="font-style:normal;font-variant:normal;font-weight:900;font-stretch:normal;font-family:Arial;-inkscape-font-specification:'Arial Heavy';fill:#bb1304;fill-opacity:1"
         d="m -5181.5679,649.55641 h 234.6102 v 757.57409 h -234.6102 z" />
      <path
         id="path1149"
         style="font-style:normal;font-variant:normal;font-weight:900;font-stretch:normal;font-family:Arial;-inkscape-font-specification:'Arial Heavy';fill:#bb1304;fill-opacity:1"
         d="m -4831.7196,649.55641 h 257.8645 l 134.3583,233.05996 130.2242,-233.05996 h 255.2808 l -235.6438,366.90149 257.8646,390.6726 h -263.0322 l -149.3444,-243.3952 -149.8612,243.3952 h -261.4819 l 261.4819,-394.8067 z" />
    </g>
    <text
       style="fill:black;fill-opacity:1;stroke:none;font-family:sans-serif;font-style:normal;font-weight:normal;font-size:10.58333333px;line-height:1.25;letter-spacing:0px;word-spacing:0px;white-space:pre;shape-inside:url(#rect316);"
       id="text314"
       xml:space="preserve" />
  </g>
</svg>
